<svg xmlns="http://www.w3.org/2000/svg" xmlns:xlink="http://www.w3.org/1999/xlink" id="Layer_1" x="0" y="0" version="1.1" viewBox="0 0 384.7 122.8" xml:space="preserve" style="enable-background:new 0 0 384.7 122.8"><style type="text/css">.st0{fill:#4754a1}.st1{fill:#280b4a}.st2{fill:#290c4a}.st3{fill:#280c4a}.st4{fill:#4754a2}.st5{fill:#2c0f4d}.st6{fill:#e5e7f2}.st7{fill:#2f134f}.st8{fill:#f9f9f9}</style><switch><g><path d="M16.6,49.2c0-6.8,0-13.6,0-20.5c0.1-6,3.1-9.5,9-9.6c14.3-0.1,28.6-0.2,42.9,0c7.1,0.1,11.4,7.6,8.7,14.3 c-0.9,2.2-2.7,1.6-4.2,1.6c-9.3,0.1-18.6,0-28,0c-11.3,0-12.5,1.3-12.5,12.7c0,9.3-0.1,18.6,0.1,27.9c0.1,3.3-1.1,4.2-4.3,4.2 c-9.3,0-11.8-2.3-11.8-11.7C16.6,61.9,16.6,55.6,16.6,49.2z" class="st0"/><path d="M76.8,109.2c-7,0-14,0-21,0c-7.5-0.1-12.3-7.5-9.5-14.4c0.9-2.2,2.7-1.5,4.3-1.5c10.7-0.1,21.3,0,32,0 c6,0,8.8-2.8,8.9-8.8c0.1-10.5,0.1-21,0-31.4c0-3.2,0.9-4.3,4.3-4.3c8.7,0.1,11.8,2.9,11.8,11.5c0,12.6,0,25.3,0,37.9 c0,8.1-3,11-11.2,11C89.8,109.2,83.3,109.2,76.8,109.2z" class="st0"/><path d="M299.7,80c-5.6,3.7-11.6,4.8-18.1,2.8c-7.3-2.3-11.9-7-13-14.7c-1.1-7.5,0.9-13.9,7.2-18.3 c6.5-4.5,13.6-5,20.8-1.8c1.8,0.8,3.3,4.1,5.1-0.7c0.9-2.4,5.5-0.9,8.3-0.7c2.4,0.1,1.8,2.4,1.8,3.9c0,10.3,0.3,20.6-0.3,30.9 c-0.6,12.3-7,18.2-19.3,18.9c-6.4,0.4-12.6-0.1-18.5-3.1c-2.1-1-4.2-2.1-2-4.7c1.5-1.8,0.9-6.5,6-3.8c4.8,2.6,10.2,4.1,15.9,2 C298.7,88.8,300.5,85.9,299.7,80z" class="st1"/><path d="M351.8,79.6c-6.1,4-12,5.3-18.5,3.3c-6.8-2.1-11.6-6.2-12.9-13.1c-1.4-7.7-0.3-15.1,6.8-20 c6.5-4.4,13.6-5.1,20.8-1.9c1.9,0.8,3.3,3.9,5-0.8c0.8-2.1,5.5-0.8,8.4-0.7c2.4,0.1,1.7,2.5,1.7,4c0,10.3,0.1,20.6,0,30.9 c-0.2,11.1-6.6,17.8-17.8,18.8c-6.9,0.6-13.6,0.1-20-3c-2.2-1.1-3.9-2.4-1.8-4.9c1.5-1.8,1.3-6.2,5.8-3.6c3,1.7,6.5,2.5,10,2.9 C346.9,92.1,351.3,88.3,351.8,79.6z" class="st1"/><path d="M163.5,75.7c7.6,0,15,0.2,22.4-0.1c4.1-0.2,5.3,1,5.3,5.2c0.1,4.5-1.8,5.1-5.6,5.1c-10.8-0.2-21.7,0-32.5-0.1 c-2.1,0-5.3,1.4-6.3-1.3c-1-3-1-6.5,1.5-9.4c5.4-6.1,10.5-12.4,15.7-18.7c3.1-3.7,6.1-7.4,10-12.1c-8,0-15-0.3-21.9,0.1 c-5,0.3-5.8-1.8-5.6-6.1c0.1-3,1.1-4,4.1-4c10.8,0.1,21.7,0,32.5,0.1c2.1,0,5.3-1.5,6.2,1.3c1,3,0.9,6.4-1.7,9.3 c-7.2,8.3-14.1,16.8-21.1,25.3C165.4,71.8,163.6,73,163.5,75.7z" class="st2"/><path d="M220.1,65.9c0-5-0.1-10,0-15c0-1.7-0.9-4.3,1.7-4.5c3-0.2,7.4-1.9,8.8,1c1.7,3.3,2.6,1.6,4.1,0.8 c9.7-5.1,21-1.7,24.4,7.4c1.3,3.6,1.1,7.5,1.1,11.3c0,4.7-0.3,9.3,0.1,13.9c0.5,5.2-2.6,4.9-6.1,5.1c-4.1,0.2-5.6-1.1-5.3-5.3 c0.4-5.1,0.2-10.3,0.1-15.4c-0.1-6.4-3-9.6-8.4-9.5c-5.5,0.1-8.9,3.7-9.1,9.7c-0.1,5.6-0.2,11.3,0,16.9c0.2,4.2-2.6,3.6-5,3.4 c-2.5-0.3-6.5,1.9-6.5-3.4C220.1,76.9,220.1,71.4,220.1,65.9z" class="st3"/><path d="M64.8,48.8c3.4,0.4,8.9-1.8,11.7,0.8c3.1,2.9,0.8,8.5,1.1,12.9c0.2,3.1,0.2,6.3-0.1,9.5 c-0.3,4.6-2.9,7.6-7.5,7.7c-7,0.3-14,0.1-20.9,0.2c-2.1,0-3-0.9-3-3c0.1-6.8-0.1-13.6,0.1-20.4c0.2-4.5,3.6-7.5,8.2-7.6 C57.6,48.8,60.8,48.8,64.8,48.8z" class="st4"/><path d="M197.9,65.9c0-5.3,0.2-10.6-0.1-15.9c-0.2-3.8,2-4.1,4.7-3.6c2.6,0.5,6.9-2.2,6.9,3.5c0,10.8,0,21.6,0,32.3 c0,2.7-1,3.7-3.8,3.8c-7.7,0.3-7.7,0.4-7.8-7.2c0-2.2,0-4.3,0-6.5C197.9,70.2,197.9,68,197.9,65.9z" class="st5"/><path d="M125.4,64.5c0-15.9,0-31.9,0-47.8c0-1.6-1-4.3,1.8-4.4c3.3-0.1,2.1,2.8,2.1,4.5c0.1,31.7,0.1,63.4,0,95.2 c0,0.7,0,1.3,0,2c0,1.4-0.2,2.8-2.1,2.7c-1.9-0.1-1.9-1.5-1.9-2.9c0-7.5,0-14.9,0-22.4C125.4,82.4,125.4,73.5,125.4,64.5z" class="st6"/><path d="M202.2,28.6c5.6-0.1,8.2,2.1,8.3,5.9c0.1,3.7-2.7,6.2-6.7,6.3c-4.3,0.1-7.5-2.5-7.3-6.3 C196.7,30.2,199.6,28.7,202.2,28.6z" class="st7"/><path d="M289.8,74.3c-5.9-0.1-10.1-4-10.1-9.4c0-5.7,4.7-9.7,11.1-9.5c6.1,0.2,9.8,3.9,9.7,9.7 C300.3,70.9,296.3,74.4,289.8,74.3z" class="st8"/><path d="M341.3,74.3c-5.9-0.1-10.3-4.1-10.3-9.4c0-5.6,4.9-9.7,11.2-9.5c5.8,0.2,10.1,4.3,9.9,9.6 C351.9,70.6,347.5,74.4,341.3,74.3z" class="st8"/></g></switch></svg>